<svg height="24" width="24" xmlns="http://www.w3.org/2000/svg"><g transform="translate(0 -1028.4)"><path d="m6 3a3 3 0 1 1 -6 0 3 3 0 1 1 6 0z" fill="#f39c12" transform="translate(9 1045.4)"/><path d="m12 0c-.828 0-1.5.67157-1.5 1.5 0 .1829.034.3691.094.5312-1.3613.1978-2.4534.6879-3.2502 1.4688-.8462.8288-1.2501 1.9648-1.25 3.375-.0001 2.2393-.4576 4.381-1.3126 6.406-.8549 2.017-2.1065 3.687-3.7812 5.063 0 .444.1651.831.5 1.156s.7292.5 1.1875.5h3.2813 2.625.4687.5937.4378.562 4.75 5.906c.459 0 .853-.175 1.188-.5s.5-.712.5-1.156c-1.675-1.376-2.926-3.046-3.781-5.063-.855-2.025-1.313-4.1667-1.313-6.406 0-1.4102-.404-2.5462-1.25-3.375-.797-.7809-1.889-1.271-3.25-1.4688.06-.1621.094-.3483.094-.5312 0-.82843-.672-1.5-1.5-1.5z" fill="#f1c40f" transform="translate(0 1028.4)"/><path d="m12 1045.4c-1.657 0-3 1.3-3 3 0 1.6 1.343 3 3 3z" fill="#e67e22"/><path d="m12 1028.4c-.828 0-1.5.6-1.5 1.5 0 .1.034.3.094.5-1.3613.2-2.4534.7-3.2502 1.5-.8462.8-1.2501 1.9-1.25 3.3-.0001 2.3-.4576 4.4-1.3126 6.4-.8549 2.1-2.1065 3.7-3.7812 5.1 0 .5.1651.8.5 1.2.3349.3.7292.5 1.1875.5h3.2813 2.625.4687.5937.4378.562 1.344z" fill="#f39c12"/><path d="m9 1048.4c0 .3.074.6.1875 1h5.6245c.114-.4.188-.7.188-1z" fill="#e67e22"/></g></svg>